<mxfile host="app.diagrams.net" agent="Mozilla/5.0 (X11; Ubuntu; Linux x86_64; rv:132.0) Gecko/20100101 Firefox/132.0" version="24.8.4">
  <diagram name="Page-1" id="gtM-KBbGRNITbYT8aGW2">
    <mxGraphModel dx="1368" dy="790" grid="1" gridSize="10" guides="1" tooltips="1" connect="1" arrows="1" fold="1" page="1" pageScale="1" pageWidth="850" pageHeight="1100" math="0" shadow="0">
      <root>
        <mxCell id="0" />
        <mxCell id="1" parent="0" />
        <mxCell id="Jx2BlyM2KirhIQBwAuTQ-1" value="&lt;font style=&quot;font-size: 24px;&quot;&gt;modulo &lt;br&gt;&lt;/font&gt;&lt;h1 style=&quot;font-size: 24px;&quot; class=&quot;product-summary-name-without-seo Product-Summary-Name ng-star-inserted&quot;&gt;&lt;font style=&quot;font-size: 24px;&quot;&gt;&lt;span class=&quot;product-summary-name--Original&quot;&gt; NVIDIA Jetson Orin Nano Developer Kit&lt;/span&gt;&lt;/font&gt;&lt;/h1&gt;" style="whiteSpace=wrap;html=1;aspect=fixed;" vertex="1" parent="1">
          <mxGeometry x="100" y="140" width="180" height="180" as="geometry" />
        </mxCell>
        <mxCell id="Jx2BlyM2KirhIQBwAuTQ-2" value="" style="whiteSpace=wrap;html=1;aspect=fixed;" vertex="1" parent="1">
          <mxGeometry x="425" y="45" width="370" height="370" as="geometry" />
        </mxCell>
        <mxCell id="Jx2BlyM2KirhIQBwAuTQ-3" value="&lt;div&gt;esp32 - lora &lt;br&gt;&lt;/div&gt;&lt;div&gt;IN&lt;br&gt;&lt;/div&gt;" style="whiteSpace=wrap;html=1;aspect=fixed;" vertex="1" parent="1">
          <mxGeometry x="615" y="70" width="100" height="100" as="geometry" />
        </mxCell>
        <mxCell id="Jx2BlyM2KirhIQBwAuTQ-4" value="ethernet -esp32" style="whiteSpace=wrap;html=1;aspect=fixed;" vertex="1" parent="1">
          <mxGeometry x="455" y="180" width="102.5" height="102.5" as="geometry" />
        </mxCell>
        <mxCell id="Jx2BlyM2KirhIQBwAuTQ-5" value="&lt;div&gt;esp32 - lora&lt;/div&gt;&lt;div&gt;OUT&lt;br&gt;&lt;/div&gt;" style="whiteSpace=wrap;html=1;aspect=fixed;" vertex="1" parent="1">
          <mxGeometry x="615" y="290" width="100" height="100" as="geometry" />
        </mxCell>
        <mxCell id="Jx2BlyM2KirhIQBwAuTQ-6" value="" style="endArrow=classic;html=1;rounded=0;exitX=1;exitY=0.5;exitDx=0;exitDy=0;entryX=0;entryY=0.5;entryDx=0;entryDy=0;startArrow=classic;startFill=1;" edge="1" parent="1" source="Jx2BlyM2KirhIQBwAuTQ-1" target="Jx2BlyM2KirhIQBwAuTQ-4">
          <mxGeometry relative="1" as="geometry">
            <mxPoint x="370" y="240" as="sourcePoint" />
            <mxPoint x="470" y="240" as="targetPoint" />
          </mxGeometry>
        </mxCell>
        <mxCell id="Jx2BlyM2KirhIQBwAuTQ-7" value="Label" style="edgeLabel;resizable=0;html=1;;align=center;verticalAlign=middle;" connectable="0" vertex="1" parent="Jx2BlyM2KirhIQBwAuTQ-6">
          <mxGeometry relative="1" as="geometry" />
        </mxCell>
        <mxCell id="Jx2BlyM2KirhIQBwAuTQ-8" value="Text" style="edgeLabel;html=1;align=center;verticalAlign=middle;resizable=0;points=[];" vertex="1" connectable="0" parent="Jx2BlyM2KirhIQBwAuTQ-6">
          <mxGeometry x="0.0056" y="2" relative="1" as="geometry">
            <mxPoint as="offset" />
          </mxGeometry>
        </mxCell>
        <mxCell id="Jx2BlyM2KirhIQBwAuTQ-9" value="ethernet" style="edgeLabel;html=1;align=center;verticalAlign=middle;resizable=0;points=[];" vertex="1" connectable="0" parent="Jx2BlyM2KirhIQBwAuTQ-6">
          <mxGeometry x="0.0011" y="1" relative="1" as="geometry">
            <mxPoint as="offset" />
          </mxGeometry>
        </mxCell>
        <mxCell id="Jx2BlyM2KirhIQBwAuTQ-10" value="" style="endArrow=classic;html=1;rounded=0;entryX=0.25;entryY=0;entryDx=0;entryDy=0;startArrow=classic;startFill=1;" edge="1" parent="1" source="Jx2BlyM2KirhIQBwAuTQ-4" target="Jx2BlyM2KirhIQBwAuTQ-5">
          <mxGeometry relative="1" as="geometry">
            <mxPoint x="610" y="330" as="sourcePoint" />
            <mxPoint x="710" y="330" as="targetPoint" />
          </mxGeometry>
        </mxCell>
        <mxCell id="Jx2BlyM2KirhIQBwAuTQ-11" value="Label" style="edgeLabel;resizable=0;html=1;;align=center;verticalAlign=middle;" connectable="0" vertex="1" parent="Jx2BlyM2KirhIQBwAuTQ-10">
          <mxGeometry relative="1" as="geometry" />
        </mxCell>
        <mxCell id="Jx2BlyM2KirhIQBwAuTQ-12" value="seriale" style="edgeLabel;html=1;align=center;verticalAlign=middle;resizable=0;points=[];" vertex="1" connectable="0" parent="Jx2BlyM2KirhIQBwAuTQ-10">
          <mxGeometry x="0.0477" relative="1" as="geometry">
            <mxPoint as="offset" />
          </mxGeometry>
        </mxCell>
        <mxCell id="Jx2BlyM2KirhIQBwAuTQ-13" value="" style="endArrow=classic;html=1;rounded=0;exitX=1;exitY=0.25;exitDx=0;exitDy=0;entryX=0.25;entryY=1;entryDx=0;entryDy=0;startArrow=classic;startFill=1;" edge="1" parent="1" source="Jx2BlyM2KirhIQBwAuTQ-4" target="Jx2BlyM2KirhIQBwAuTQ-3">
          <mxGeometry relative="1" as="geometry">
            <mxPoint x="568" y="261" as="sourcePoint" />
            <mxPoint x="663" y="299" as="targetPoint" />
          </mxGeometry>
        </mxCell>
        <mxCell id="Jx2BlyM2KirhIQBwAuTQ-14" value="Label" style="edgeLabel;resizable=0;html=1;;align=center;verticalAlign=middle;" connectable="0" vertex="1" parent="Jx2BlyM2KirhIQBwAuTQ-13">
          <mxGeometry relative="1" as="geometry" />
        </mxCell>
        <mxCell id="Jx2BlyM2KirhIQBwAuTQ-15" value="seriale" style="edgeLabel;html=1;align=center;verticalAlign=middle;resizable=0;points=[];" vertex="1" connectable="0" parent="Jx2BlyM2KirhIQBwAuTQ-13">
          <mxGeometry x="0.0477" relative="1" as="geometry">
            <mxPoint as="offset" />
          </mxGeometry>
        </mxCell>
        <mxCell id="Jx2BlyM2KirhIQBwAuTQ-16" value="ardu cam" style="whiteSpace=wrap;html=1;aspect=fixed;" vertex="1" parent="1">
          <mxGeometry x="150" y="400" width="80" height="80" as="geometry" />
        </mxCell>
        <mxCell id="Jx2BlyM2KirhIQBwAuTQ-17" value="" style="endArrow=classic;html=1;rounded=0;exitX=0.5;exitY=0;exitDx=0;exitDy=0;entryX=0.5;entryY=1;entryDx=0;entryDy=0;" edge="1" parent="1" source="Jx2BlyM2KirhIQBwAuTQ-16" target="Jx2BlyM2KirhIQBwAuTQ-1">
          <mxGeometry relative="1" as="geometry">
            <mxPoint x="350" y="280" as="sourcePoint" />
            <mxPoint x="450" y="280" as="targetPoint" />
          </mxGeometry>
        </mxCell>
        <mxCell id="Jx2BlyM2KirhIQBwAuTQ-18" value="Label" style="edgeLabel;resizable=0;html=1;;align=center;verticalAlign=middle;" connectable="0" vertex="1" parent="Jx2BlyM2KirhIQBwAuTQ-17">
          <mxGeometry relative="1" as="geometry" />
        </mxCell>
        <mxCell id="Jx2BlyM2KirhIQBwAuTQ-19" value="data bus" style="edgeLabel;html=1;align=center;verticalAlign=middle;resizable=0;points=[];" vertex="1" connectable="0" parent="Jx2BlyM2KirhIQBwAuTQ-17">
          <mxGeometry x="-0.05" y="-7" relative="1" as="geometry">
            <mxPoint x="-7" as="offset" />
          </mxGeometry>
        </mxCell>
      </root>
    </mxGraphModel>
  </diagram>
</mxfile>
